<svg width="32" height="32" viewBox="0 0 32 32" fill="none" xmlns="http://www.w3.org/2000/svg">
<path d="M16.9333 6.26667C17.1778 6.51112 17.3058 6.82223 17.3173 7.2C17.3289 7.57778 17.212 7.8889 16.9667 8.13334L10.4333 14.6667L25.3333 14.6667C25.7111 14.6667 26.028 14.7947 26.284 15.0507C26.54 15.3067 26.6676 15.6231 26.6667 16C26.6667 16.3778 26.5387 16.6947 26.2827 16.9507C26.0267 17.2067 25.7102 17.3342 25.3333 17.3333H10.4333L16.9667 23.8667C17.2111 24.1111 17.328 24.4222 17.3173 24.8C17.3067 25.1778 17.1787 25.4889 16.9333 25.7333C16.6889 25.9778 16.3778 26.1 16 26.1C15.6222 26.1 15.3111 25.9778 15.0667 25.7333L6.26667 16.9333C6.13333 16.8222 6.03867 16.6831 5.98267 16.516C5.92667 16.3489 5.89911 16.1769 5.9 16C5.9 15.8222 5.92756 15.6556 5.98267 15.5C6.03778 15.3445 6.13244 15.2 6.26667 15.0667L15.0667 6.26667C15.3111 6.02223 15.6222 5.90001 16 5.90001C16.3778 5.90001 16.6889 6.02223 16.9333 6.26667Z" fill="white"/>
</svg>
