<svg width="64" height="64" viewBox="0 0 64 64" fill="none" xmlns="http://www.w3.org/2000/svg">
<circle cx="32" cy="32" r="30.5" fill="white" stroke="#00B934" stroke-width="3"/>
<path d="M19.0022 25.4691C20.2124 23.0593 22.0689 21.0335 24.3643 19.6181C26.6596 18.2028 29.3034 17.4537 32 17.4545C35.92 17.4545 39.2131 18.896 41.7309 21.2436L37.5607 25.4153C36.0524 23.9738 34.1353 23.2393 32 23.2393C28.2109 23.2393 25.0036 25.7993 23.8618 29.2364C23.5709 30.1091 23.4051 31.04 23.4051 32C23.4051 32.96 23.5709 33.8909 23.8618 34.7636C25.0051 38.2022 28.2109 40.7607 32 40.7607C33.9564 40.7607 35.6218 40.2444 36.9251 39.3716C37.6806 38.8742 38.3275 38.2287 38.8265 37.4742C39.3255 36.7197 39.6663 35.8718 39.8284 34.9818H32V29.3556H45.6989C45.8705 30.3069 45.9636 31.2989 45.9636 32.3302C45.9636 36.7607 44.3782 40.4902 41.6262 43.0211C39.2204 45.2436 35.9273 46.5455 32 46.5455C30.0896 46.5462 28.1979 46.1705 26.4328 45.4398C24.6677 44.7091 23.0639 43.6377 21.7131 42.2869C20.3623 40.9361 19.2909 39.3323 18.5602 37.5672C17.8295 35.8021 17.4538 33.9104 17.4545 32C17.4545 29.6524 18.016 27.4327 19.0022 25.4691Z" fill="#00B934"/>
</svg>
