<svg width="64" height="64" viewBox="0 0 64 64" fill="none" xmlns="http://www.w3.org/2000/svg">
<circle cx="32" cy="32" r="30.5" fill="#3E3E3E" fill-opacity="0.5" stroke="#00B934" stroke-width="3"/>
<path d="M46.7179 29.6062H45.5463V29.5458H32.455V35.3642H40.6756C39.4763 38.7512 36.2536 41.1825 32.455 41.1825C27.6352 41.1825 23.7275 37.2748 23.7275 32.455C23.7275 27.6352 27.6352 23.7275 32.455 23.7275C34.6798 23.7275 36.7038 24.5668 38.245 25.9377L42.3593 21.8234C39.7614 19.4023 36.2864 17.9092 32.455 17.9092C24.4221 17.9092 17.9092 24.4221 17.9092 32.455C17.9092 40.4879 24.4221 47.0008 32.455 47.0008C40.4879 47.0008 47.0008 40.4879 47.0008 32.455C47.0008 31.4797 46.9005 30.5277 46.7179 29.6062Z" fill="#FFC107"/>
<path d="M19.5863 25.6846L24.3653 29.1895C25.6585 25.9879 28.7902 23.7275 32.455 23.7275C34.6798 23.7275 36.7038 24.5668 38.245 25.9377L42.3593 21.8234C39.7614 19.4023 36.2864 17.9092 32.455 17.9092C26.8679 17.9092 22.0227 21.0634 19.5863 25.6846Z" fill="#FF3D00"/>
<path d="M32.455 47.0008C36.2122 47.0008 39.6261 45.563 42.2073 43.2247L37.7053 39.4152C36.1959 40.5631 34.3514 41.184 32.455 41.1825C28.6716 41.1825 25.4592 38.7701 24.249 35.4034L19.5056 39.0581C21.9129 43.7687 26.8018 47.0008 32.455 47.0008Z" fill="#4CAF50"/>
<path d="M46.7179 29.6062H45.5463V29.5458H32.455V35.3642H40.6756C40.1019 36.9761 39.0685 38.3847 37.7031 39.4159L37.7053 39.4145L42.2073 43.224C41.8887 43.5135 47.0008 39.7279 47.0008 32.455C47.0008 31.4797 46.9005 30.5277 46.7179 29.6062Z" fill="#1976D2"/>
</svg>
